<?xml version="1.0" standalone="no"?>
<!DOCTYPE svg PUBLIC "-//W3C//DTD SVG 20010904//EN"
 "http://www.w3.org/TR/2001/REC-SVG-20010904/DTD/svg10.dtd">
<svg version="1.0" xmlns="http://www.w3.org/2000/svg"
 width="1148.000000pt" height="1148.000000pt" viewBox="0 0 1148.000000 1148.000000"
 preserveAspectRatio="xMidYMid meet">
<metadata>
Created by potrace 1.11, written by Peter Selinger 2001-2013
</metadata>
<g transform="translate(0.000000,1148.000000) scale(0.100000,-0.100000)"
fill="#000000" stroke="none">
<path d="M6490 11476 c-3 -2 -28 -7 -55 -10 -92 -10 -150 -18 -180 -22 -16 -3
-41 -7 -55 -9 -52 -7 -107 -16 -130 -21 -14 -3 -42 -7 -64 -10 -72 -10 -303
-73 -360 -99 -31 -14 -73 -28 -94 -30 -41 -5 -55 -8 -127 -26 -27 -7 -52 -16
-55 -20 -3 -4 -17 -10 -30 -12 -14 -3 -56 -19 -95 -37 -38 -17 -72 -32 -75
-33 -5 -1 -29 -21 -54 -42 -6 -5 -29 -23 -51 -40 -93 -68 -152 -126 -224 -220
-99 -129 -137 -189 -193 -305 -26 -52 -70 -126 -98 -165 -28 -38 -73 -104 -98
-145 -25 -41 -51 -78 -57 -82 -5 -4 -6 -8 -2 -8 5 0 0 -12 -11 -27 -10 -16
-22 -35 -26 -43 -4 -8 -12 -24 -19 -35 -39 -65 -92 -162 -93 -172 -1 -7 -16
-35 -33 -63 -17 -27 -29 -50 -26 -50 3 0 -12 -33 -33 -72 -21 -40 -49 -100
-62 -133 -13 -33 -27 -65 -32 -71 -5 -7 -11 -21 -13 -33 -2 -12 -23 -72 -45
-134 -23 -61 -57 -164 -75 -227 -18 -63 -45 -155 -60 -205 -15 -49 -29 -101
-31 -115 -2 -14 -7 -38 -11 -55 -4 -16 -6 -34 -5 -39 2 -4 -3 -14 -9 -22 -6
-8 -9 -14 -6 -14 3 0 0 -19 -5 -42 -6 -24 -12 -54 -14 -68 -1 -14 -6 -41 -9
-60 -12 -69 -14 -86 -21 -145 -3 -33 -8 -64 -11 -68 -2 -4 -6 -22 -8 -40 -2
-18 -7 -43 -10 -57 -11 -45 -17 -74 -20 -100 -2 -14 -6 -36 -9 -50 -4 -14 -9
-41 -12 -60 -3 -19 -7 -46 -10 -60 -2 -14 -6 -36 -8 -50 -6 -45 -35 -165 -45
-192 -5 -14 -7 -28 -4 -31 3 -3 1 -12 -3 -19 -5 -7 -10 -20 -11 -28 -9 -44
-15 -77 -15 -90 0 -8 -2 -22 -5 -30 -3 -8 -7 -26 -8 -40 -1 -14 -5 -36 -9 -50
-3 -14 -8 -41 -11 -60 -10 -74 -36 -168 -78 -283 -18 -48 -176 -278 -228 -331
-15 -16 -18 -9 -35 73 -3 14 -7 28 -10 32 -2 4 2 13 9 21 22 22 26 43 17 84
-5 22 -11 57 -14 79 -3 22 -10 65 -16 95 -6 30 -13 69 -16 85 -2 17 -7 37 -9
45 -2 8 -7 31 -11 50 -3 19 -7 40 -8 45 -4 24 -19 35 -40 29 -20 -5 -26 0 -38
33 -18 45 -63 200 -76 263 -6 25 -16 68 -24 97 -15 51 -15 69 -4 128 7 35 -19
132 -41 157 -27 31 -78 38 -136 21 -29 -8 -59 -22 -69 -30 -42 -37 -28 -177
21 -212 16 -11 31 -18 34 -15 4 5 10 -13 24 -76 2 -8 6 -31 8 -50 3 -19 12
-69 21 -110 9 -41 17 -79 18 -85 1 -5 5 -15 9 -22 11 -18 -7 -54 -49 -97 -21
-22 -39 -47 -41 -55 -1 -9 16 -92 38 -186 22 -93 42 -181 45 -194 3 -13 9 -31
13 -40 5 -9 14 -41 20 -71 7 -31 22 -65 36 -80 17 -18 25 -41 29 -85 12 -115
18 -150 32 -177 21 -41 18 -54 -34 -121 -60 -77 -132 -185 -132 -198 0 -5 -4
-9 -10 -9 -5 0 -9 -3 -8 -7 2 -8 -27 -75 -62 -144 -33 -65 -59 -162 -64 -241
-2 -21 -4 -44 -4 -52 -1 -8 -12 -16 -25 -20 -13 -3 -40 -12 -60 -21 -20 -8
-40 -15 -43 -14 -4 0 -10 -3 -13 -8 -6 -8 -146 -77 -162 -79 -5 -1 -19 -2 -31
-3 -12 0 -44 -24 -70 -52 -39 -39 -48 -55 -42 -72 10 -33 32 -54 62 -60 34 -7
51 -47 46 -111 -2 -37 1 -48 16 -56 26 -14 199 -22 254 -11 56 10 77 -8 53
-46 -5 -7 -6 -13 -3 -13 11 0 -27 -105 -43 -117 -9 -7 -39 -24 -67 -39 -29
-14 -62 -36 -75 -50 -12 -13 -25 -24 -29 -24 -11 0 -114 -100 -170 -165 -60
-70 -125 -168 -162 -245 -29 -61 -68 -202 -63 -228 12 -66 14 -116 5 -151 -5
-23 -15 -59 -20 -82 -6 -22 -32 -89 -59 -147 -40 -89 -74 -191 -96 -296 -3
-10 -10 -35 -16 -54 -12 -38 -7 -118 9 -134 16 -16 36 0 22 17 -9 11 -6 19 14
36 14 13 26 27 26 32 0 11 31 78 43 92 4 6 28 46 53 90 43 77 67 104 169 190
26 22 54 46 61 53 7 6 17 12 23 12 6 0 11 4 11 9 0 5 17 20 38 32 20 13 43 29
50 36 8 8 28 21 45 30 18 9 34 19 37 23 11 16 96 52 163 70 116 29 338 100
347 110 9 10 59 40 67 40 5 0 15 -21 22 -47 8 -27 24 -79 36 -117 l22 -68 -59
-67 c-77 -86 -170 -245 -182 -312 -2 -13 -5 -24 -6 -24 -12 0 -17 -122 -6
-170 3 -16 8 -51 11 -78 2 -26 10 -58 16 -70 l12 -22 8 25 c46 155 95 272 131
316 53 62 108 95 131 75 8 -6 21 -34 30 -63 16 -49 63 -211 73 -251 10 -40 14
-58 18 -75 2 -9 9 -37 16 -62 6 -25 13 -56 15 -70 3 -21 16 -123 17 -140 2
-23 -7 -40 -38 -75 -63 -70 -101 -119 -117 -153 -15 -31 -15 -33 8 -60 13 -16
42 -35 65 -42 23 -8 49 -24 56 -36 20 -30 6 -103 -17 -89 -5 4 -9 2 -9 -4 0
-5 -13 -12 -29 -16 -42 -9 -63 -36 -55 -71 4 -16 30 -60 59 -99 73 -98 77
-108 60 -131 -8 -11 -15 -16 -15 -12 0 4 -14 -6 -30 -21 -38 -34 -35 -65 8
-91 42 -26 63 -61 67 -112 1 -24 5 -61 8 -83 8 -56 20 -178 18 -190 -1 -5 -3
-35 -6 -65 -3 -30 -6 -66 -8 -80 -2 -14 -5 -30 -5 -37 -1 -6 -17 -15 -34 -18
-39 -9 -69 -32 -62 -49 3 -7 -2 -33 -10 -57 -13 -40 -44 -152 -51 -189 -2 -8
-10 -42 -19 -75 -10 -33 -19 -73 -22 -90 -3 -16 -9 -43 -14 -59 -8 -23 -6 -33
13 -56 18 -21 27 -25 43 -18 14 6 81 -11 244 -62 124 -39 234 -73 244 -75 28
-6 32 -12 59 -94 14 -40 34 -82 45 -93 19 -19 21 -19 52 -3 19 10 48 33 65 51
18 19 38 34 45 34 6 0 44 -15 83 -34 146 -69 222 -96 292 -102 17 -1 59 -10
95 -18 36 -9 74 -19 85 -21 11 -2 38 -9 60 -14 82 -20 116 -28 155 -35 16 -4
190 170 190 189 0 4 15 26 33 49 17 24 39 54 47 66 8 12 22 30 30 40 8 10 22
28 30 40 45 65 87 88 132 71 32 -12 89 -6 100 11 4 7 8 21 9 31 1 9 3 26 4 37
1 11 3 26 4 33 0 7 20 34 44 59 64 70 82 93 113 145 15 26 33 54 40 60 19 20
72 165 94 261 34 145 42 173 58 188 25 25 0 59 -63 88 -67 30 -186 116 -179
128 3 4 1 8 -5 8 -6 0 -26 24 -45 54 -19 29 -45 61 -58 70 -22 16 -24 16 -45
-11 -12 -15 -24 -25 -27 -23 -2 3 -20 54 -40 114 -40 117 -39 136 4 212 17 31
17 32 -4 58 -11 15 -32 29 -46 32 -14 3 -32 7 -40 9 -8 2 -18 4 -21 4 -4 1
-18 28 -33 62 -20 46 -24 65 -16 80 6 10 14 19 18 19 4 0 12 11 18 24 10 21 8
28 -10 44 -11 11 -41 28 -66 39 -43 19 -46 23 -63 86 -11 36 -26 78 -34 94
-26 48 -22 104 10 138 27 28 47 65 47 85 0 20 -63 80 -84 80 -11 0 -26 4 -31
8 -13 8 -75 164 -75 186 0 8 -4 17 -9 20 -5 3 -11 17 -13 30 -4 21 2 28 41 49
25 14 66 31 91 38 70 19 69 19 165 35 68 11 203 10 214 -1 6 -6 12 -37 16 -70
3 -33 8 -73 11 -90 3 -16 7 -41 8 -55 16 -118 63 -242 139 -365 44 -72 90
-231 114 -395 7 -45 9 -168 3 -205 -1 -11 0 -38 3 -60 4 -22 9 -60 12 -83 16
-136 70 -268 206 -507 98 -172 153 -311 185 -470 10 -52 14 -63 33 -105 11
-25 22 -65 25 -90 3 -25 10 -60 16 -79 5 -19 7 -38 4 -42 -3 -5 -7 -32 -9 -59
-3 -28 -9 -59 -14 -69 -13 -23 -4 -56 27 -105 14 -23 25 -59 28 -90 7 -83 13
-129 23 -163 5 -18 7 -33 4 -33 -19 0 25 -30 65 -45 26 -10 53 -25 60 -34 12
-14 13 -10 7 24 -11 69 -13 99 -6 119 5 13 17 -9 40 -80 39 -117 51 -142 83
-171 16 -15 28 -19 38 -13 8 5 21 5 31 0 17 -10 85 -26 144 -36 53 -8 215 28
215 48 0 4 15 11 33 16 29 7 33 13 43 63 6 30 10 72 8 94 -4 41 -5 42 -100
126 -66 58 -187 218 -284 377 -74 121 -82 135 -96 175 -14 41 -80 289 -88 332
-3 14 -7 33 -10 43 -4 15 -8 36 -21 117 -12 72 -17 101 -20 105 -2 3 -6 34
-10 69 -4 34 -8 72 -11 84 -5 24 -11 76 -19 152 -2 28 -8 79 -12 115 -3 36 -6
74 -6 85 1 11 3 65 6 120 6 112 -8 234 -33 299 -5 14 -12 79 -15 143 -12 245
-20 375 -30 483 -13 140 -17 175 -21 179 -2 2 1 10 7 17 9 10 24 3 72 -37 117
-95 108 -88 192 -137 28 -16 65 -48 83 -71 35 -43 97 -78 182 -102 52 -14 72
-13 83 7 15 26 32 14 105 -71 63 -74 76 -96 97 -163 28 -95 74 -189 126 -259
38 -51 93 -165 151 -313 31 -79 107 -302 113 -333 2 -10 7 -28 10 -40 3 -12
10 -38 15 -57 46 -173 74 -337 86 -515 3 -49 8 -93 11 -97 2 -5 1 -14 -4 -20
-11 -18 -20 -254 -13 -358 2 -40 -8 -102 -22 -140 -5 -14 -9 -26 -9 -27 1 -10
-35 -98 -64 -154 -19 -37 -32 -76 -30 -86 7 -38 38 -98 68 -136 55 -67 99 -81
265 -80 58 0 97 4 105 12 11 11 13 47 8 131 -3 44 3 85 19 136 16 50 30 65 31
33 4 -88 18 -181 30 -195 6 -7 26 -18 46 -25 53 -17 65 5 50 96 -19 114 -22
174 -13 240 16 116 17 107 -36 176 -61 77 -74 107 -82 179 -4 30 -8 69 -10 85
-5 36 -19 214 -19 235 0 15 11 159 18 240 2 25 7 68 11 95 3 28 7 61 9 75 2
14 8 53 13 88 15 85 -16 330 -70 567 -11 50 -22 99 -23 110 -2 11 -8 33 -14
49 -6 16 -14 44 -17 63 -3 19 -12 51 -21 71 -9 20 -21 60 -28 87 -30 119 -67
228 -86 254 -25 34 -33 146 -11 160 15 9 18 37 9 66 -4 11 -3 25 1 30 11 16
74 44 112 51 19 4 47 13 61 20 32 16 55 0 39 -26 -6 -8 -7 -46 -4 -84 11 -125
37 -179 78 -163 13 5 15 11 7 25 -19 36 29 177 78 229 34 36 101 71 226 118
128 49 203 83 223 103 8 7 28 20 45 29 17 8 36 21 42 27 7 6 24 20 40 31 37
26 145 133 145 143 0 5 8 17 18 28 10 10 31 37 47 59 17 22 33 42 36 45 3 3
12 16 18 29 29 54 115 161 121 151 8 -13 -10 -98 -42 -205 -12 -38 -22 -75
-24 -81 -3 -20 -74 -228 -86 -254 -6 -14 -16 -38 -23 -55 -28 -67 -70 -145
-77 -145 -4 0 -7 -3 -6 -7 2 -5 -10 -25 -27 -47 -16 -21 -30 -46 -30 -55 -3
-40 -6 -48 -30 -73 -18 -20 -21 -27 -10 -32 21 -8 64 8 128 46 76 46 107 76
197 185 19 23 79 139 94 180 14 41 21 76 31 159 7 60 9 63 49 149 21 44 39 85
40 92 1 7 5 16 9 19 4 4 7 16 7 26 0 10 5 18 10 18 6 0 9 3 8 8 -1 4 10 45 25
92 44 135 48 148 52 167 18 76 59 215 74 248 10 22 21 48 25 58 12 35 21 208
31 592 5 175 9 250 20 330 2 17 7 52 10 79 10 86 18 86 65 0 23 -44 51 -91 62
-106 10 -15 26 -46 34 -70 38 -103 115 -324 119 -340 6 -28 25 -58 36 -58 7 0
9 15 4 43 -3 23 -7 96 -9 162 -2 110 -10 201 -22 258 -2 12 -7 38 -10 57 -5
29 -20 97 -39 170 -2 8 -8 33 -13 55 -5 22 -20 76 -32 120 -12 44 -23 87 -25
95 -2 8 -22 74 -45 145 -22 72 -42 137 -44 145 -2 8 -9 33 -14 55 -6 22 -13
58 -17 80 -6 47 -33 199 -40 235 -3 14 -7 36 -10 50 -2 14 -7 41 -11 60 -3 19
-8 44 -9 55 -2 11 -4 20 -5 20 -1 0 -3 9 -5 20 -1 11 -7 40 -13 65 -6 25 -16
83 -22 130 -10 80 -13 103 -25 198 -2 20 -7 55 -9 77 -3 22 -8 137 -11 255 -7
255 -11 341 -20 476 -6 99 -8 116 -21 219 -4 28 -8 61 -9 75 -1 14 -5 39 -8
55 -4 17 -9 44 -12 60 -6 36 -9 51 -29 135 -14 62 -19 86 -31 155 -3 17 -10
50 -15 75 -5 25 -11 59 -14 75 -7 41 -36 205 -41 230 -3 11 -10 43 -16 70 -6
28 -11 62 -10 76 1 27 -74 275 -89 294 -5 6 -9 13 -9 18 -2 23 -16 67 -32 99
-11 21 -20 46 -22 56 -1 11 -11 31 -20 46 -18 27 -36 67 -33 76 0 3 -9 19 -21
36 -12 17 -23 37 -25 45 -2 8 -5 16 -8 19 -3 3 -25 46 -50 95 -24 50 -63 118
-87 153 -23 34 -39 62 -35 62 4 0 2 4 -3 8 -6 4 -28 32 -49 62 -151 213 -238
320 -370 455 -76 76 -274 226 -388 294 -167 99 -249 128 -461 167 -16 2 -45
15 -66 28 -61 39 -155 84 -186 90 -17 3 -48 10 -70 15 -22 6 -62 13 -90 17
-66 8 -369 17 -375 10z m-2216 -3026 c20 -45 35 -84 32 -88 -3 -5 -7 -28 -10
-53 -6 -48 -75 -251 -97 -288 -8 -11 -19 -21 -25 -21 -13 0 -28 46 -19 60 3 5
8 49 11 97 2 47 6 107 9 132 5 48 16 152 20 186 1 11 3 28 4 38 0 9 9 17 20
17 13 0 28 -22 55 -80z m1167 -1497 c17 -58 16 -201 0 -263 -15 -53 -70 -172
-85 -182 -6 -4 -7 -8 -2 -8 15 0 -24 -38 -46 -43 -23 -6 -23 -8 16 98 47 131
81 298 85 418 1 42 17 32 32 -20z m3224 -656 c-11 -149 -16 -188 -29 -252 -3
-11 -7 -33 -11 -50 -20 -96 -84 -265 -153 -405 -31 -63 -58 -117 -60 -119 -1
-3 -7 0 -12 5 -5 5 0 41 15 94 13 47 26 96 29 110 3 14 33 131 66 260 33 129
62 242 63 250 17 77 51 172 71 198 16 22 27 -21 21 -91z m-3492 -1524 c4 -3 3
-11 -2 -17 -5 -6 -14 -30 -20 -53 -7 -24 -16 -43 -21 -43 -6 0 -9 -3 -8 -7 10
-37 -107 -244 -167 -295 -79 -67 -209 -102 -310 -83 -11 2 -29 4 -39 4 -16 1
-17 4 -7 14 6 6 15 12 19 13 31 3 82 17 82 23 0 3 19 15 43 26 23 10 56 30 72
43 17 13 43 33 58 45 38 30 116 108 147 147 14 17 34 43 46 57 11 13 36 49 55
78 34 55 40 60 52 48z m-2746 -191 c12 -30 11 -34 -18 -67 -18 -20 -34 -33
-37 -31 -3 3 -26 -17 -52 -45 -29 -29 -50 -44 -52 -37 -9 25 116 221 137 214
5 -1 15 -17 22 -34z"/>
<path d="M8677 2776 c-3 -8 2 -37 12 -64 14 -37 16 -54 8 -68 -6 -10 -12 -28
-13 -39 -2 -11 -6 -36 -9 -55 -11 -70 -24 -181 -30 -250 -3 -30 -7 -82 -10
-115 -22 -236 -22 -278 0 -311 15 -23 19 -24 31 -12 23 23 35 100 48 323 4 50
8 117 11 150 3 33 7 96 10 139 3 44 8 83 12 89 3 5 28 -38 55 -95 27 -56 92
-182 144 -279 52 -97 94 -182 94 -189 0 -7 -35 -49 -79 -94 -198 -204 -311
-330 -311 -348 0 -11 13 -49 28 -86 16 -37 33 -80 37 -97 5 -16 9 -32 10 -35
1 -3 5 -25 9 -50 5 -25 10 -54 12 -65 2 -11 6 -45 9 -75 3 -30 8 -71 10 -90 2
-19 7 -80 10 -135 10 -185 13 -197 50 -232 l33 -32 26 26 c14 14 26 29 26 34
0 4 6 14 13 21 6 8 19 26 27 40 44 77 134 224 140 228 4 3 17 23 29 45 29 53
82 139 90 145 3 3 12 16 20 30 69 120 71 129 21 155 -25 13 -29 12 -42 -3 -9
-9 -17 -22 -19 -27 -12 -30 -93 -155 -101 -155 -5 0 -7 -4 -4 -9 3 -4 -8 -26
-24 -47 -16 -21 -30 -44 -30 -50 0 -6 -11 -21 -25 -34 -13 -12 -23 -26 -20
-30 2 -3 -6 -22 -18 -40 -12 -19 -34 -54 -49 -79 -25 -43 -47 -63 -49 -44 0 4
-2 17 -3 28 -2 11 -6 56 -10 100 -12 135 -14 152 -30 243 -21 115 -21 116 -51
197 -14 39 -26 72 -27 75 -2 22 12 41 85 115 45 47 120 126 167 176 47 50 95
101 108 114 41 42 35 61 -95 305 -22 41 -64 120 -93 175 -29 55 -75 143 -103
195 -28 52 -57 109 -65 125 -16 33 -51 75 -63 75 -4 0 -9 -6 -12 -14z"/>
<path d="M8253 2658 c-6 -7 -9 -22 -8 -33 11 -84 12 -136 4 -175 -16 -78 -21
-105 -21 -120 0 -8 -2 -22 -5 -30 -4 -8 -7 -28 -9 -45 -3 -39 -11 -100 -19
-150 -4 -22 -7 -47 -7 -55 0 -8 -2 -22 -5 -30 -4 -8 -7 -26 -8 -40 -1 -14 -5
-45 -9 -70 -4 -25 -9 -58 -11 -75 -7 -52 -13 -89 -19 -125 -4 -19 -9 -53 -11
-75 -3 -22 -7 -51 -9 -65 -3 -14 -7 -41 -10 -60 -3 -19 -8 -51 -11 -70 -3 -19
-7 -53 -10 -75 -3 -22 -8 -52 -11 -67 -3 -15 -7 -44 -10 -65 -5 -40 -8 -65
-18 -123 -4 -19 -9 -53 -11 -75 -3 -21 -8 -41 -10 -43 -2 -3 -21 15 -42 39
-85 97 -102 112 -118 99 -20 -16 -7 -40 91 -166 166 -213 245 -294 289 -294
34 0 13 47 -54 122 -68 76 -89 118 -76 157 8 25 11 44 19 105 4 27 9 52 10 55
2 3 7 33 10 66 7 58 9 73 20 140 3 17 8 50 11 75 3 25 10 61 14 80 l7 35 94 1
c57 0 104 5 118 13 13 7 25 11 28 9 7 -7 38 -137 80 -337 3 -12 12 -53 20 -90
18 -73 22 -93 29 -134 3 -15 12 -60 21 -100 24 -110 35 -160 39 -182 2 -18 5
-31 19 -103 3 -13 -10 -55 -30 -100 l-36 -76 29 -23 c15 -13 30 -23 33 -23 3
0 18 22 33 50 15 27 32 52 38 55 5 4 18 23 29 44 19 38 19 38 -1 78 -11 22
-22 56 -24 74 -3 19 -13 79 -24 134 -28 138 -29 144 -36 154 -3 5 -7 24 -10
43 -7 46 -11 66 -25 123 -6 28 -14 61 -16 75 -3 14 -10 43 -16 65 -6 22 -11
47 -12 55 -1 8 -5 26 -9 40 -4 14 -9 36 -12 50 -2 14 -10 48 -16 75 -6 28 -12
59 -14 70 -2 11 -6 29 -9 40 -12 44 -25 102 -31 135 -7 41 -13 65 -16 65 -1 0
-3 9 -5 20 -1 11 -5 31 -9 45 -3 14 -7 36 -10 50 -2 14 -11 57 -20 95 -10 39
-19 79 -20 90 -2 11 -13 64 -25 119 -12 54 -23 108 -26 120 -2 11 -7 35 -10
51 -4 17 -8 40 -10 52 -1 11 -5 31 -9 43 -4 12 -8 32 -10 43 -11 73 -25 122
-42 139 -16 15 -22 17 -30 6z m63 -466 c5 -36 16 -88 24 -122 5 -19 12 -53 15
-75 4 -22 15 -78 25 -125 10 -47 21 -98 24 -115 4 -16 12 -57 20 -89 18 -77
13 -90 -33 -81 -20 4 -64 9 -98 10 -71 4 -86 10 -79 33 8 25 12 54 31 212 3
25 8 56 10 70 3 23 7 49 20 170 9 79 17 124 22 133 7 11 16 1 19 -21z"/>
<path d="M2960 2380 c0 -6 -3 -9 -7 -9 -20 3 -34 -2 -28 -11 9 -15 41 -12 54
4 9 10 8 15 -4 20 -8 3 -15 1 -15 -4z"/>
<path d="M2789 2356 c-2 -3 -18 -7 -34 -10 -17 -2 -31 -5 -32 -6 -2 -2 -6 -3
-10 -5 -21 -5 -51 -18 -75 -31 -16 -8 -28 -12 -28 -7 0 4 -4 3 -8 -3 -4 -6
-27 -24 -52 -39 -55 -35 -165 -144 -208 -208 -17 -26 -32 -50 -31 -52 0 -3 -7
-18 -15 -33 -15 -26 -45 -96 -52 -117 -22 -72 -37 -134 -36 -149 1 -11 -3 -27
-8 -36 -11 -21 -1 -62 14 -57 6 2 12 12 12 23 2 33 18 127 28 169 3 11 21 58
35 90 5 11 17 39 26 63 10 23 21 42 25 42 3 0 14 16 23 35 32 67 152 185 227
223 30 16 66 35 80 42 14 8 27 15 30 15 23 4 111 38 115 46 6 9 -17 13 -26 5z"/>
<path d="M6476 1602 c-6 -11 5 -15 149 -62 55 -18 125 -44 155 -58 95 -44 214
-104 242 -123 14 -11 28 -19 31 -19 10 0 160 -118 225 -176 87 -79 83 -42 -5
45 -156 152 -450 313 -681 372 -42 10 -84 22 -94 25 -9 2 -19 1 -22 -4z"/>
<path d="M2196 1533 c6 -53 8 -70 20 -128 4 -22 8 -42 9 -45 0 -3 14 -39 29
-80 82 -215 227 -386 534 -633 105 -84 395 -249 567 -322 150 -64 458 -163
560 -180 73 -13 92 -17 105 -21 8 -3 26 -8 40 -10 14 -3 48 -9 75 -14 115 -22
209 -36 310 -45 33 -3 76 -8 96 -10 19 -3 69 -7 110 -10 190 -12 240 -15 329
-22 120 -10 523 -10 655 -1 55 4 147 11 205 14 112 7 134 9 150 19 5 3 18 2
27 -3 9 -6 26 -6 38 -2 19 7 58 13 175 25 65 7 125 16 140 20 8 2 31 6 50 9
19 4 53 11 75 16 22 6 49 12 60 14 45 8 184 47 220 62 21 9 46 17 55 19 21 4
174 68 180 75 3 3 31 21 64 39 32 18 64 37 70 42 54 45 72 59 77 59 14 0 17
29 5 39 -10 9 -27 1 -69 -34 -31 -25 -60 -45 -65 -45 -5 0 -15 -7 -22 -15 -7
-8 -16 -13 -20 -10 -4 3 -13 -2 -20 -10 -13 -16 -100 -59 -112 -57 -5 1 -8 -3
-8 -10 0 -6 -3 -9 -6 -5 -4 3 -24 -3 -46 -14 -36 -18 -159 -62 -183 -64 -5 -1
-30 -7 -55 -15 -41 -12 -129 -33 -190 -46 -14 -2 -33 -7 -42 -10 -28 -8 -87
-17 -193 -29 -27 -3 -61 -8 -75 -10 -88 -16 -322 -31 -584 -40 -93 -3 -173 -8
-177 -11 -5 -3 -9 -1 -9 5 0 7 -8 7 -26 1 -14 -6 -54 -8 -87 -5 -34 3 -125 8
-202 10 -142 5 -273 12 -355 20 -25 2 -80 7 -123 10 -43 3 -92 7 -110 10 -45
6 -196 26 -232 31 -67 8 -359 69 -374 78 -4 3 -23 8 -42 11 -40 7 -175 50
-309 98 -235 85 -441 191 -642 329 -110 76 -289 226 -329 276 -19 23 -52 63
-75 87 -22 24 -47 57 -54 72 -8 16 -24 42 -36 58 -41 55 -103 201 -94 217 1 2
-3 16 -9 31 -13 32 -21 76 -26 128 -4 48 -14 79 -25 79 -5 0 -7 -21 -4 -47z"/>
</g>
</svg>
